<?xml version="1.0" encoding="utf-8"?>
<!-- Generator: Adobe Illustrator 23.0.4, SVG Export Plug-In . SVG Version: 6.00 Build 0)  -->
<svg version="1.1" id="Layer_1" xmlns="http://www.w3.org/2000/svg" xmlns:xlink="http://www.w3.org/1999/xlink" x="0px" y="0px"
	 width="1280px" height="1024px" viewBox="0 0 1280 1024" enable-background="new 0 0 1280 1024" xml:space="preserve">


	 
<radialGradient id="SVGID_1_" cx="659.8353" cy="225.5502" r="51.3304" gradientUnits="userSpaceOnUse">
	<stop  offset="0.1417" style="stop-color:#00A86B"/>
	<stop  offset="1" style="stop-color:#000000"/>
</radialGradient>
<circle fill="url(#SVGID_1_)" cx="659.84" cy="225.55" r="51.33"/>
<path fill="#020202" stroke="#020202" stroke-miterlimit="10" d="M551.01,668.37c-0.81-12.33-2.28-68.57-3.12-181.09
	c-0.68-91.2,1.6-132.52,26.01-158.27c5.68-5.99,22.26-23.52,45.64-25.04c13.88-0.9,17.34,4.69,31.87,6.11
	c37.88,3.7,61.82-29.64,70.15-22.71c6.81,5.67-0.46,38.55-23.75,54.93c-29.79,20.94-64.13-4.83-89.81,18.39
	c-9.82,8.88-13.87,20.7-16.91,29.58c-6.37,18.6-4.78,34-3.09,51.95c4.23,44.74,5.68,67.17,6.15,72.31
	c3.33,36.03,4.99,54.05,4.88,76.93c-0.12,26.04-2.2,62.5-2.61,69.22c-0.65,10.7-0.99,16.05-1.05,17
	c-0.95,14.32-1.22,15.89-1.22,24.54c0,5.14,0,66.82,26.85,77.74c6.97,2.84,20.57,1.8,47.77-0.29c0.14-0.01,0.79-0.06,1.67-0.12
	c1.82-0.12,4.81-0.27,8.51-0.27c0,0,10.65,0.06,21.23,2.03c17.62,3.28,69.54,26.74,66.27,37.83c-3.96,13.42-73.23,7.86-97.81,4.99
	c-34.78-4.05-56.03-8.07-56.03-8.07c-25.91-4.9-36.38-8.55-53.85-6.15c-15.43,2.12-18.09,6.46-36.92,12.31
	c-27.25,8.46-63.89,12.43-67.29,4.7c-4.04-9.18,70.52-31.02,93.44-90.85C555.26,717.13,553.36,704.11,551.01,668.37z"/>
<path fill="#FFFFFF" stroke="#000000" stroke-miterlimit="10" d="M784.92,703.77"/>
<path fill="#FFFFFF" stroke="#000000" stroke-miterlimit="10" d="M823.38,496.08"/>
<path fill="#FFFFFF" stroke="#000000" stroke-miterlimit="10" d="M428,431.46"/>
<path fill="#FFFFFF" stroke="#000000" stroke-miterlimit="10" d="M743.38,540.69"/>
<path fill="#FFFFFF" stroke="#000000" stroke-miterlimit="10" d="M886.46,742.23"/>
<path fill="#FFFFFF" stroke="#000000" stroke-miterlimit="10" d="M174.15,777.62"/>
<text transform="matrix(1 0 0 1 793.01 814.5382)" font-family="'AndaleMono'" font-size="28px">Solutions</text>
<path d="M714.15,426.85"/>
<path d="M644.92,491.46"/>
<line fill="none" x1="864.92" y1="842.23" x2="866.46" y2="842.23"/>
<line stroke="#00A86B" stroke-miterlimit="10" x1="787.83" y1="825.95" x2="951.09" y2="825.95"/>
</svg>
