<svg xmlns="http://www.w3.org/2000/svg" xmlns:xlink="http://www.w3.org/1999/xlink" width="17.58cm" height="23.5cm" viewBox="0 0 498.21 666">
<defs><radialGradient id="a" cx="202.73" cy="51.33" r="51.33" gradientUnits="userSpaceOnUse">
<stop offset="0.14" stop-color="#fff"/><stop offset="1"/>
</radialGradient>
</defs>
<title>Logo-Isolutions</title>
<g style="isolation:isolate"><path d="M1565.46,777.62" transform="translate(-453.9 -176.23)" fill="#fff" stroke="#000" stroke-miterlimit="10"/>
<path d="M551,668.37c-.81-12.32-2.28-68.57-3.12-181.09-.68-91.19,1.6-132.52,26-158.26,5.68-6,22.25-23.52,45.64-25,13.88-.9,17.34,4.69,31.87,6.11,37.89,3.71,61.82-29.63,70.15-22.71,6.81,5.66-.46,38.55-23.75,54.93C668,363.25,633.68,337.48,608,360.69c-9.82,8.88-13.87,20.7-16.91,29.59-6.37,18.59-4.79,34-3.09,52,4.23,44.74,5.68,67.17,6.15,72.31,3.33,36,5,54.05,4.89,76.93-.12,26-2.21,62.5-2.62,69.22-.65,10.7-1,16-1,17-.94,14.32-1.22,15.89-1.22,24.54,0,5.14,0,66.82,26.85,77.74,7,2.84,20.57,1.8,47.77-.28.14,0,.79-.07,1.67-.12,1.82-.12,4.81-.27,8.51-.27a136.66,136.66,0,0,1,21.24,2c17.62,3.28,69.54,26.73,66.27,37.82-4,13.42-73.23,7.86-97.81,5-34.78-4-56-8.07-56-8.07-25.91-4.9-36.38-8.56-53.85-6.16-15.43,2.12-18.09,6.47-36.92,12.31-27.26,8.46-63.89,12.43-67.29,4.7-4-9.18,70.52-31,93.44-90.85C555.26,717.13,553.36,704.11,551,668.37Z" transform="translate(-453.9 -176.23)" stroke="#ccc" stroke-miterlimit="10"/>
<path d="M784.92,703.77" transform="translate(-453.9 -176.23)" fill="#fff" stroke="#000" stroke-miterlimit="10"/>
<path d="M823.38,496.08" transform="translate(-453.9 -176.23)" fill="#fff" stroke="#000" stroke-miterlimit="10"/>
<path d="M428,431.46" transform="translate(-453.9 -176.23)" fill="#fff" stroke="#000" stroke-miterlimit="10"/>
<path d="M743.38,540.69" transform="translate(-453.9 -176.23)" fill="#fff" stroke="#000" stroke-miterlimit="10"/>
<circle className="circle-animation" cx="202.73" cy="51.33" r="51.33" fill="url(#a)" style="mix-blend-mode:darken"/>
<path d="M886.46,742.23" transform="translate(-453.9 -176.23)" fill="#fff" stroke="#000" stroke-miterlimit="10"/>
<path d="M174.15,777.62" transform="translate(-453.9 -176.23)" fill="#fff" stroke="#000" stroke-miterlimit="10"/>
<text transform="translate(339.11 638.31)" font-size="28" font-family="AndaleMono, Andale Mono">Solutions</text>
<path d="M714.15,426.85" transform="translate(-453.9 -176.23)"/>
<path d="M644.92,491.46" transform="translate(-453.9 -176.23)"/><line x1="411.02" y1="666" x2="412.56" y2="666" fill="none"/>
<line x1="334.95" y1="648.3" x2="498.21" y2="648.3" stroke="#ccc" stroke-miterlimit="10" stroke-width="2"/></g></svg>