<?xml version="1.0" encoding="utf-8"?>
<!-- Generator: Adobe Illustrator 23.0.4, SVG Export Plug-In . SVG Version: 6.00 Build 0)  -->
<svg version="1.1" id="Layer_1" xmlns="http://www.w3.org/2000/svg" xmlns:xlink="http://www.w3.org/1999/xlink" x="0px" y="0px"
	 viewBox="0 0 1280 1024" style="enable-background:new 0 0 1280 1024;" xml:space="preserve">
<style type="text/css">
	.st0{fill:#FFFFFF;stroke:#000000;stroke-miterlimit:10;}
	.st1{fill:url(#SVGID_1_);}
	.st2{fill:#020202;stroke:#020202;stroke-miterlimit:10;}
	.st3{fill:#00A86B;}
	.st4{font-family:'AndaleMono';}
	.st5{font-size:28px;}
	.st6{fill:none;}
	.st7{stroke:#00A86B;stroke-miterlimit:10;}
	.st8{fill:none;stroke:#FFFFFF;stroke-width:4.3667;stroke-miterlimit:10;}
	.st9{fill:url(#SVGID_2_);stroke:#FFFFFF;stroke-width:4.0168;stroke-miterlimit:10;}
	.st10{fill:url(#SVGID_3_);}
	.st11{fill:url(#SVGID_4_);}
	.st12{fill:url(#SVGID_5_);}
</style>
<path class="st0" d="M1819.3,431.5"/>
<radialGradient id="SVGID_1_" cx="659.8353" cy="225.5502" r="51.3304" gradientUnits="userSpaceOnUse">
	<stop  offset="0.1417" style="stop-color:#00A86B"/>
	<stop  offset="1" style="stop-color:#000000"/>
</radialGradient>
<circle class="st1" cx="659.8" cy="225.6" r="51.3"/>
<path class="st0" d="M1565.5,777.6"/>
<path class="st2" d="M551,668.4c-0.8-12.3-2.3-68.6-3.1-181.1c-0.7-91.2,1.6-132.5,26-158.3c5.7-6,22.3-23.5,45.6-25
	c13.9-0.9,17.3,4.7,31.9,6.1c37.9,3.7,61.8-29.6,70.1-22.7c6.8,5.7-0.5,38.6-23.7,54.9c-29.8,20.9-64.1-4.8-89.8,18.4
	c-9.8,8.9-13.9,20.7-16.9,29.6c-6.4,18.6-4.8,34-3.1,52c4.2,44.7,5.7,67.2,6.2,72.3c3.3,36,5,54,4.9,76.9c-0.1,26-2.2,62.5-2.6,69.2
	c-0.7,10.7-1,16-1.1,17c-0.9,14.3-1.2,15.9-1.2,24.5c0,5.1,0,66.8,26.8,77.7c7,2.8,20.6,1.8,47.8-0.3c0.1,0,0.8-0.1,1.7-0.1
	c1.8-0.1,4.8-0.3,8.5-0.3c0,0,10.7,0.1,21.2,2c17.6,3.3,69.5,26.7,66.3,37.8c-4,13.4-73.2,7.9-97.8,5c-34.8-4.1-56-8.1-56-8.1
	c-25.9-4.9-36.4-8.6-53.8-6.2c-15.4,2.1-18.1,6.5-36.9,12.3c-27.3,8.5-63.9,12.4-67.3,4.7c-4-9.2,70.5-31,93.4-90.9
	C555.3,717.1,553.4,704.1,551,668.4z"/>
<path class="st0" d="M784.9,703.8"/>
<path class="st0" d="M823.4,496.1"/>
<path class="st0" d="M428,431.5"/>
<path class="st0" d="M743.4,540.7"/>
<circle class="st3" cx="1503.9" cy="276.9" r="51.3"/>
<path class="st0" d="M886.5,742.2"/>
<path class="st0" d="M174.2,777.6"/>
<text transform="matrix(1 0 0 1 793.01 814.5382)" class="st4 st5">Solutions</text>
<path d="M714.2,426.8"/>
<path d="M644.9,491.5"/>
<line class="st6" x1="864.9" y1="842.2" x2="866.5" y2="842.2"/>
<line class="st7" x1="787.8" y1="825.9" x2="951.1" y2="825.9"/>
<path class="st8" d="M2374.1,731.6"/>
<g>
	<radialGradient id="SVGID_2_" cx="2282.9316" cy="742.2308" r="206.1854" gradientUnits="userSpaceOnUse">
		<stop  offset="0.4263" style="stop-color:#00A86B"/>
		<stop  offset="0.5722" style="stop-color:#008152"/>
		<stop  offset="0.8969" style="stop-color:#002015"/>
		<stop  offset="1" style="stop-color:#000000"/>
	</radialGradient>
	<path class="st9" d="M2282.9,536c-113.9,0-206.2,92.3-206.2,206.2s92.3,206.2,206.2,206.2s206.2-92.3,206.2-206.2
		S2396.8,536,2282.9,536z M2282.9,864c-67.3,0-121.8-54.5-121.8-121.8s54.5-121.8,121.8-121.8s121.8,54.5,121.8,121.8
		S2350.2,864,2282.9,864z"/>
	
		<ellipse transform="matrix(0.7071 -0.7071 0.7071 0.7071 43.0156 1489.3453)" class="st3" cx="1819.3" cy="692.7" rx="121.8" ry="121.8"/>
	<radialGradient id="SVGID_3_" cx="1766.6099" cy="190.2795" r="121.7899" gradientUnits="userSpaceOnUse">
		<stop  offset="0.1417" style="stop-color:#00A86B"/>
		<stop  offset="1" style="stop-color:#000000"/>
	</radialGradient>
	<circle class="st10" cx="1766.6" cy="190.3" r="121.8"/>
</g>
<g>
	
		<radialGradient id="SVGID_4_" cx="2708.1943" cy="195.3542" r="163.0039" gradientTransform="matrix(0.9611 0 0 0.9003 54.0537 5.1958)" gradientUnits="userSpaceOnUse">
		<stop  offset="0.1895" style="stop-color:#00A86B"/>
		<stop  offset="0.3049" style="stop-color:#009760"/>
		<stop  offset="0.5337" style="stop-color:#006B44"/>
		<stop  offset="0.8514" style="stop-color:#002417"/>
		<stop  offset="1" style="stop-color:#000000"/>
	</radialGradient>
	<path class="st11" d="M2639.1,181.1c0-60.6,52.4-109.6,117.1-109.6v-76c-109.4,0-198.2,83.1-198.2,185.6s88.7,185.6,198.2,185.6
		v-76C2691.5,290.7,2639.1,241.6,2639.1,181.1z"/>
	
		<radialGradient id="SVGID_5_" cx="1634.3796" cy="751.5975" r="163.0038" gradientTransform="matrix(0.9611 0 0 0.9003 54.0537 5.1958)" gradientUnits="userSpaceOnUse">
		<stop  offset="0.1417" style="stop-color:#00A86B"/>
		<stop  offset="1" style="stop-color:#000000"/>
	</radialGradient>
	<path class="st12" d="M1525.8,496.2v76l0,0c64.6,0,117.1,49.1,117.1,109.6s-52.4,109.6-117.1,109.6h0v76c0,0,0,0,0,0
		c109.4,0,198.2-83.1,198.2-185.6S1635.3,496.2,1525.8,496.2z"/>
</g>
<ellipse transform="matrix(0.7071 -0.7071 0.7071 0.7071 515.1466 1619.5906)" class="st3" cx="2212.6" cy="188" rx="121.8" ry="121.8"/>
</svg>
